<?xml version="1.0" encoding="utf-8"?>
<!-- Generator: Adobe Illustrator 16.0.0, SVG Export Plug-In . SVG Version: 6.00 Build 0)  -->
<!DOCTYPE svg PUBLIC "-//W3C//DTD SVG 1.1//EN" "http://www.w3.org/Graphics/SVG/1.1/DTD/svg11.dtd">
<svg version="1.1" id="Layer_1" xmlns="http://www.w3.org/2000/svg" xmlns:xlink="http://www.w3.org/1999/xlink" x="0px" y="0px"
	 width="30px" height="30px" viewBox="0 0 256 256" enable-background="new 0 0 256 256" xml:space="preserve">
<g>
	<polygon fill="#FFFFFF" points="193.611,154.801 101.202,62.392 116.912,46.678 209.319,139.087 	"/>
	<path fill="#12b7b6" d="M4.096,159.497c-5.082,5.079-5.082,13.4,0,18.479l73.928,73.927c5.084,5.085,13.399,5.085,18.481,0
		l97.106-97.102l-92.41-92.409L4.096,159.497z"/>
	<path fill="#48707C" d="M251.904,78.022L177.977,4.098c-5.081-5.084-13.399-5.084-18.482,0l-42.582,42.58l92.407,92.409
		l42.585-42.58C256.986,91.422,256.986,83.107,251.904,78.022z"/>
	<path opacity="0.15" d="M251.904,78.022L214.94,41.057L41.059,214.937l36.965,36.966c5.084,5.085,13.399,5.085,18.481,0
		l97.106-97.102l15.708-15.714l42.585-42.58C256.986,91.422,256.986,83.107,251.904,78.022z"/>
</g>
</svg>
